<svg xmlns="http://www.w3.org/2000/svg" aria-label="Messenger" class="_8-yf5 " color="#262626" fill="#262626" height="22" role="img" viewBox="0 0 48 48" width="22"><path clip-rule="evenodd" d="M10.2 29.8c-.7 1 .6 2.2 1.6 1.5l7.3-5.5c.5-.4 1.2-.4 1.7 0l5.4 4c1.6 1.2 3.9.8 5-.9L38 18.2c.7-1-.6-2.2-1.6-1.5L29 22.2c-.5.4-1.2.4-1.7 0l-5.4-4c-1.6-1.2-3.9-.8-5 .9l-6.7 10.7zM24 1c13 0 23 9.5 23 22.3S37 45.6 24 45.6c-2.3 0-4.6-.3-6.7-.9-.4-.1-.8-.1-1.2.1l-4.6 2c-1.1.6-2.5-.3-2.5-1.6l-.1-4.1c0-.5-.2-1-.6-1.3C3.7 35.8 1 30 1 23.3 1 10.5 11 1 24 1z" fill-rule="evenodd"/></svg>